<svg xmlns="http://www.w3.org/2000/svg" xmlns:xlink="http://www.w3.org/1999/xlink" viewBox="0 0 1050 1050"><defs><style>.cls-1{fill:url(#18);}.cls-2{fill:#fff;}.cls-3{fill:url(#755);}.cls-4{fill:url(#712);}.cls-5{fill:url(#679);}.cls-6{fill:url(#718);}</style><linearGradient id="18" x1="71.88" y1="1010.91" x2="984.02" y2="32.76" gradientUnits="userSpaceOnUse"><stop offset="0.04" stop-color="#47deb8"/><stop offset="0.58" stop-color="#57d98d"/><stop offset="0.96" stop-color="#96d95b"/></linearGradient><linearGradient id="755" x1="690.06" y1="471.59" x2="914" y2="471.59" gradientUnits="userSpaceOnUse"><stop offset="0" stop-color="#fff"/><stop offset="1" stop-color="#85f57b"/></linearGradient><linearGradient id="712" x1="124.61" y1="532" x2="533.03" y2="448.27" gradientUnits="userSpaceOnUse"><stop offset="0" stop-color="#fff"/><stop offset="1" stop-color="#7df5a5"/></linearGradient><linearGradient id="679" x1="142.48" y1="657.03" x2="914" y2="657.03" gradientUnits="userSpaceOnUse"><stop offset="0" stop-color="#67f5ae"/><stop offset="1" stop-color="#fff"/></linearGradient><linearGradient id="718" x1="479.82" y1="315.63" x2="584.97" y2="604.15" gradientUnits="userSpaceOnUse"><stop offset="0" stop-color="#fff"/><stop offset="1" stop-color="#93f5ac"/></linearGradient></defs><g id="2" data-name="2"><g id="2-2" data-name="2"><rect class="cls-1" width="1050" height="1050"/><path class="cls-2" d="M884.47,575.86C874,563,868,556,858,549a96,96,0,0,0-34-16c-19.93-4-28.12-3.43-33.84-3.07H790c-.87.09-1.76.13-2.65.14h-.51a45.6,45.6,0,0,0-31.64,12.7c-.34.32-.67.64-1,1a45.77,45.77,0,0,0,32.63,77.87,35.42,35.42,0,0,1,17.51,4.61,35.94,35.94,0,0,1,12.89,12.48,35.54,35.54,0,0,1,0,37,35.73,35.73,0,0,1-30.41,17.11c-.66,0-1.31,0-2,0s-1.31,0-2,0H395.39c-92.54,0-167.84-75.3-167.84-167.84,0-76,50.76-140.34,120.14-160.94a167.42,167.42,0,0,1,47.7-6.9c72.17,0,133.86,45.8,157.52,109.85a168.24,168.24,0,0,1-.31,116.87A163.43,163.43,0,0,1,543,605a45.78,45.78,0,0,0,80.45,43.7,260,260,0,0,0,30.09-98.46q1.25-12.56,1.24-25.21a262.32,262.32,0,0,0-4.63-49.18A256.62,256.62,0,0,0,617.6,391a261.42,261.42,0,0,0-38.8-49.4,257.68,257.68,0,0,0-183.41-76,262.12,262.12,0,0,0-47.7,4.35A259.91,259.91,0,0,0,142.48,467a262.72,262.72,0,0,0,0,116A257.54,257.54,0,0,0,212,708.41c3.52,3.52,7.12,6.94,10.81,10.22a257.42,257.42,0,0,0,172.6,65.76H782.93c.65,0,1.31,0,2,0s1.3,0,2,0a127.08,127.08,0,0,0,97.62-208.53Z"/><path id="_4" data-name="4" class="cls-3" d="M914,494.48a126.56,126.56,0,0,1-29.53,81.38C874,563,868,556,858,549a96,96,0,0,0-34-16c-19.93-4-28.12-3.43-33.84-3.07A35.65,35.65,0,0,0,817.25,513a35.54,35.54,0,0,0,0-37,35.52,35.52,0,0,0-52.71-9.27A45.77,45.77,0,0,1,700.36,460a1.73,1.73,0,0,1-.17-.21,45.77,45.77,0,0,1,6.93-64.36,127.15,127.15,0,0,1,206.88,99Z"/><path id="_2" data-name="2" class="cls-4" d="M483.41,341.59A257.54,257.54,0,0,0,347.69,270,259.91,259.91,0,0,0,142.48,467a262.72,262.72,0,0,0,0,116C166.13,647,227.82,692.84,300,692.84h95.4c-92.54,0-167.84-75.3-167.84-167.84,0-76,50.76-140.34,120.14-160.94a167.42,167.42,0,0,1,47.7-6.9c72.17,0,133.86,45.8,157.52,109.85A257.62,257.62,0,0,0,483.41,341.59Z"/><path id="_3" data-name="3" class="cls-5" d="M914,657.24A127.25,127.25,0,0,1,786.85,784.39c-.66,0-1.31,0-2,0s-1.31,0-2,0H395.39a257.42,257.42,0,0,1-172.6-65.76c-3.69-3.28-7.29-6.7-10.81-10.22A257.54,257.54,0,0,1,142.48,583a168.66,168.66,0,0,0,58.2,77.24A167,167,0,0,0,300,692.84H782.93c.65,0,1.31,0,2,0s1.3,0,2,0a35.59,35.59,0,0,0,30.4-54.11,35.94,35.94,0,0,0-12.89-12.48,35.42,35.42,0,0,0-17.51-4.61,45.77,45.77,0,0,1-32.63-77.87c.32-.34.65-.66,1-1a45.6,45.6,0,0,1,31.64-12.7h.51c.84,0,1.72-.08,2.65-.14h.15c5.72-.36,13.91-.92,33.84,3.07a96,96,0,0,1,34,16c10,7,16,14,26.47,26.86A126.54,126.54,0,0,1,914,657.24Z"/><path id="_1" data-name="1" class="cls-6" d="M650.15,475.82A256.62,256.62,0,0,0,617.6,391a261.42,261.42,0,0,0-38.8-49.4,257.68,257.68,0,0,0-183.41-76,262.21,262.21,0,0,0-47.7,4.35A259.91,259.91,0,0,1,552.91,467a168.24,168.24,0,0,1-.31,116.87A163.43,163.43,0,0,1,543,605a45.78,45.78,0,0,0,80.45,43.7,260,260,0,0,0,30.09-98.46q1.25-12.56,1.24-25.21A262.32,262.32,0,0,0,650.15,475.82Z"/></g></g></svg>